<svg xmlns="http://www.w3.org/2000/svg" viewBox="0 0 1280 1080"><defs><style>.cls-1{fill:#121212;}.cls-2{fill:#4786ff;}.cls-3{fill:#ffcc47;}.cls-4{fill:#ff5151;}</style></defs><g id="BG"><rect class="cls-1" width="1280" height="1080"/></g><g id="Camada_2" data-name="Camada 2"><path class="cls-2" d="M1067,0V375.39c-1.84,1.94-1173.65,824.72-1176.14,826.94l-71.77-111.53L1055.44,365.19,1052,371.5V0Z"/><path class="cls-3" d="M1081,0V375.31c-1.52,2-952.47,821.17-954.53,823.44L44.63,1094.38,1068.87,366l-2.87,5.9V0Z"/><path class="cls-4" d="M1095.23,0V375.62c-1.19,2-761.08,818.47-762.71,820.71l-92.26-95.27L1082.51,367.3l-2.28,5.39V0Z"/><polygon class="cls-1" points="1095.25 371.84 440.53 1080 952.41 1080 1137.5 375.5 1095.25 371.84"/><polygon class="cls-2" points="1051.99 366.8 0 984.63 1056.13 367.24 1051.99 366.8"/></g></svg>