<svg xmlns="http://www.w3.org/2000/svg" viewBox="0 0 555 863"><defs><style>.cls-1{fill:rgba(255,255,255, 0.07);}</style></defs><g id="Layer_2" data-name="Layer 2"><g id="Layer_1-2" data-name="Layer 1"><path class="cls-1" d="M511.75,0H43.25A43.37,43.37,0,0,0,0,43.25v776.5A43.37,43.37,0,0,0,43.25,863h468.5A43.37,43.37,0,0,0,555,819.75V43.25A43.37,43.37,0,0,0,511.75,0ZM276.5,820.5a50,50,0,1,1,50-50A50,50,0,0,1,276.5,820.5Zm232-173.25a43.37,43.37,0,0,1-43.25,43.25H89.75A43.37,43.37,0,0,1,46.5,647.25V93.75A43.37,43.37,0,0,1,89.75,50.5h375.5A43.37,43.37,0,0,1,508.5,93.75Z"/></g></g></svg>