<?xml version="1.0" encoding="UTF-8"?><svg xmlns="http://www.w3.org/2000/svg" viewBox="0 0 338.64 348"><defs><style>.d{fill:rgba(255,255,255, 0.03);}</style></defs><g id="a"/><g id="b"><g id="c"><g><path class="d" d="M8,348c-2.14,0-4-.8-5.6-2.4-1.6-1.6-2.4-3.47-2.4-5.6,0-1.34,.4-2.94,1.2-4.8L138,7.2c.8-1.6,1.93-3.2,3.4-4.8,1.46-1.6,3.8-2.4,7-2.4h15.6c2.13,0,4,.8,5.6,2.4s2.4,3.47,2.4,5.6c0,1.07-.27,2.67-.8,4.8L34,340.8c-.54,1.33-1.67,2.86-3.4,4.6-1.74,1.73-4.07,2.6-7,2.6H8Z"/><path class="d" d="M240.4,149.6l-17.6-13.2c-1.87-1.33-2.94-3.26-3.2-5.8-.27-2.53,.13-4.6,1.2-6.2,0-.26,.8-1.2,2.4-2.8l28.8-26.4-39.2-4.4c-1.07-.26-1.8-.46-2.2-.6-.4-.13-.74-.2-1-.2-1.87-.53-3.4-1.93-4.6-4.2-1.2-2.26-1.54-4.6-1-7l7.2-20.8c.53-2.13,2-3.73,4.4-4.8,2.4-1.06,4.53-1.33,6.4-.8,.26,0,1.33,.4,3.2,1.2l34.4,19.6-8-38.8c-.27-1.06-.4-1.8-.4-2.2v-1c0-2.13,.86-4.13,2.6-6,1.73-1.86,3.8-2.8,6.2-2.8h22c2.4,0,4.46,.94,6.2,2.8,1.73,1.87,2.6,3.87,2.6,6v1c0,.4-.14,1.14-.4,2.2l-8,38.8,34.8-19.6c1.86-.8,2.93-1.2,3.2-1.2,2.13-.53,4.33-.26,6.6,.8,2.26,1.07,3.66,2.67,4.2,4.8l7.2,20.8c.53,2.4,.2,4.74-1,7-1.2,2.27-2.87,3.67-5,4.2-.27,0-.6,.07-1,.2-.4,.14-1,.34-1.8,.6l-39.6,4.4,29.2,26.4c1.6,1.6,2.4,2.54,2.4,2.8,1.33,1.6,1.86,3.67,1.6,6.2-.27,2.54-1.47,4.47-3.6,5.8l-17.6,13.2c-2.14,1.07-4.4,1.47-6.8,1.2-2.4-.26-4.27-1.33-5.6-3.2,0-.26-.14-.53-.4-.8-.27-.26-.67-.93-1.2-2l-16.8-36.4-16.8,36.4c-.27,1.07-.6,1.74-1,2-.4,.27-.6,.54-.6,.8-1.07,1.87-2.87,2.94-5.4,3.2-2.54,.27-4.87-.13-7-1.2Z"/></g></g></g></svg>