<svg id="Layer_1" data-name="Layer 1" xmlns="http://www.w3.org/2000/svg" viewBox="0 0 100 100"><defs><style>.cls-1{fill:#fff;}</style></defs><path class="cls-1" d="M87.26,16.51h-58A12.76,12.76,0,0,0,16.51,29.26v58A12.76,12.76,0,0,0,29.26,100h58A12.76,12.76,0,0,0,100,87.26v-58A12.76,12.76,0,0,0,87.26,16.51Zm0,70.75h-58v-58h58Zm0,6.37V87.26h0Z"/><path class="cls-1" d="M80.94,6.37A6.37,6.37,0,0,0,74.57,0H12.74A12.76,12.76,0,0,0,0,12.74V74.57a6.37,6.37,0,0,0,12.74,0V12.74H74.57A6.37,6.37,0,0,0,80.94,6.37Z"/></svg>