<?xml version="1.0" encoding="UTF-8"?><svg xmlns="http://www.w3.org/2000/svg" viewBox="0 0 302.4 445.6"><defs><style>.d{fill:#fff;}</style></defs><g id="a"/><g id="b"><g id="c"><g><path class="d" d="M36,340c-2.67,0-4.87-.86-6.6-2.6-1.74-1.73-2.6-3.93-2.6-6.6v-28.8c0-2.66,.86-4.86,2.6-6.6,1.73-1.73,3.93-2.6,6.6-2.6h28.8c2.66,0,4.86,.87,6.6,2.6,1.73,1.74,2.6,3.94,2.6,6.6v28.8c0,2.67-.87,4.87-2.6,6.6-1.74,1.74-3.94,2.6-6.6,2.6h-28.8Z"/><path class="d" d="M136.8,340c-2.67,0-4.87-.86-6.6-2.6-1.74-1.73-2.6-3.93-2.6-6.6v-28.8c0-2.66,.86-4.86,2.6-6.6,1.73-1.73,3.93-2.6,6.6-2.6h28.8c2.66,0,4.86,.87,6.6,2.6,1.73,1.74,2.6,3.94,2.6,6.6v28.8c0,2.67-.87,4.87-2.6,6.6-1.74,1.74-3.94,2.6-6.6,2.6h-28.8Z"/><path class="d" d="M237.6,340c-2.67,0-4.87-.86-6.6-2.6-1.74-1.73-2.6-3.93-2.6-6.6v-28.8c0-2.66,.86-4.86,2.6-6.6,1.73-1.73,3.93-2.6,6.6-2.6h28.8c2.66,0,4.86,.87,6.6,2.6,1.73,1.74,2.6,3.94,2.6,6.6v28.8c0,2.67-.87,4.87-2.6,6.6-1.74,1.74-3.94,2.6-6.6,2.6h-28.8Z"/></g></g></g></svg>