<?xml version="1.0" encoding="UTF-8"?><svg xmlns="http://www.w3.org/2000/svg" viewBox="0 0 248.8 47.2"><defs><style>.d{fill:rgba(255,255,255, 0.03);}</style></defs><g id="a"/><g id="b"><g id="c"><g><path class="d" d="M9.2,47.2c-2.67,0-4.87-.86-6.6-2.6-1.74-1.73-2.6-3.93-2.6-6.6V9.2C0,6.54,.86,4.34,2.6,2.6,4.33,.87,6.53,0,9.2,0h28.8c2.66,0,4.86,.87,6.6,2.6,1.73,1.74,2.6,3.94,2.6,6.6v28.8c0,2.67-.87,4.87-2.6,6.6-1.74,1.74-3.94,2.6-6.6,2.6H9.2Z"/><path class="d" d="M110,47.2c-2.67,0-4.87-.86-6.6-2.6-1.74-1.73-2.6-3.93-2.6-6.6V9.2c0-2.66,.86-4.86,2.6-6.6,1.73-1.73,3.93-2.6,6.6-2.6h28.8c2.66,0,4.86,.87,6.6,2.6,1.73,1.74,2.6,3.94,2.6,6.6v28.8c0,2.67-.87,4.87-2.6,6.6-1.74,1.74-3.94,2.6-6.6,2.6h-28.8Z"/><path class="d" d="M210.8,47.2c-2.67,0-4.87-.86-6.6-2.6-1.74-1.73-2.6-3.93-2.6-6.6V9.2c0-2.66,.86-4.86,2.6-6.6,1.73-1.73,3.93-2.6,6.6-2.6h28.8c2.66,0,4.86,.87,6.6,2.6,1.73,1.74,2.6,3.94,2.6,6.6v28.8c0,2.67-.87,4.87-2.6,6.6-1.74,1.74-3.94,2.6-6.6,2.6h-28.8Z"/></g></g></g></svg>