<?xml version="1.0" encoding="UTF-8"?><svg xmlns="http://www.w3.org/2000/svg" viewBox="0 0 923.27 868.7"><defs><style>.e{fill:rgba(255,255,255,0.07);}</style></defs><g id="a"/><g id="b"><g id="c"><g id="d"><g><path class="e" d="M130.93,263.37c-6.94,0-13.79-3.17-18.24-9.18-7.45-10.06-5.33-24.26,4.73-31.71l125.04-92.58c10.06-7.45,24.26-5.33,31.71,4.73,7.45,10.06,5.33,24.26-4.73,31.71l-125.04,92.58c-4.06,3-8.79,4.45-13.47,4.45Z"/><path class="e" d="M143.28,382.36c-7.11,0-14.1-3.33-18.52-9.57-7.24-10.22-4.82-24.37,5.4-31.6L398.07,151.43c10.22-7.23,24.37-4.82,31.61,5.4,7.24,10.22,4.82,24.37-5.4,31.6L156.36,378.18c-3.98,2.82-8.56,4.17-13.08,4.17Z"/><path class="e" d="M885.31,0H37.95C17.08,0,0,17.08,0,37.96V690.9c0,20.88,17.08,37.96,37.95,37.96H347.3s11.08-.66,11.08,10.17v56.84c0,5.38-.41,8.82-6.74,8.82h-80.6c-17.68,0-32.01,14.33-32.01,32.01s14.33,32.01,32.01,32.01h381.19c17.68,0,32.01-14.33,32.01-32.01s-14.33-32.01-32.01-32.01h-81.33c-4.67,0-6.01-2.84-6.01-6.1v-61.4c0-8.5,7.95-8.34,7.95-8.34h312.47c20.88,0,37.96-17.08,37.96-37.96V37.96c0-20.88-17.08-37.96-37.95-37.96ZM500.88,739.19v58.62c0,3.06-1.55,6.66-6.21,6.66h-66.18c-5.84,0-6.09-3.07-6.09-7.93v-56.84c0-8.33,9.93-8.63,9.93-8.63h60.18s8.38-.53,8.38,8.13Zm-39.24-52.31c-20.63,0-37.35-16.72-37.35-37.35s16.72-37.35,37.35-37.35,37.35,16.72,37.35,37.35-16.72,37.35-37.35,37.35Zm405.77-144.12c0,20.88-17.08,37.96-37.95,37.96H93.82c-20.88,0-37.95-17.08-37.95-37.96V100.7c0-20.88,17.08-37.96,37.95-37.96H829.45c20.87,0,37.95,17.08,37.95,37.96v442.07Z"/></g></g></g></g></svg>