<?xml version="1.0" encoding="UTF-8"?><svg xmlns="http://www.w3.org/2000/svg" viewBox="0 0 310.39 445.6"><defs><style>.d{fill:#fff;}</style></defs><g id="a"/><g id="b"><g id="c"><g><path class="d" d="M36,340c-2.67,0-4.87-.86-6.6-2.6-1.74-1.73-2.6-3.93-2.6-6.6v-25.2c0-2.93,.86-5.26,2.6-7s3.93-2.6,6.6-2.6h25.6c2.66,0,4.86,.87,6.6,2.6,1.73,1.74,2.6,4.07,2.6,7v25.2c0,2.67-.87,4.87-2.6,6.6s-3.94,2.6-6.6,2.6h-25.6Zm3.6-66.4c-2.67,0-4.87-.86-6.6-2.6-1.74-1.73-2.6-3.93-2.6-6.6V69.2c0-2.66,.86-4.86,2.6-6.6s3.93-2.6,6.6-2.6h18.8c2.66,0,4.8,.87,6.4,2.6,1.6,1.74,2.4,3.94,2.4,6.6v195.2c0,2.67-.8,4.87-2.4,6.6-1.6,1.74-3.74,2.6-6.4,2.6h-18.8Z"/><path class="d" d="M195.2,274.4c-2.4,0-4.4-.73-6-2.2-1.6-1.46-2.4-3.53-2.4-6.2v-16c.53-11.46,3.06-21.6,7.6-30.4,4.53-8.8,10.06-16.8,16.6-24,6.53-7.2,13.13-14.06,19.8-20.6,6.66-6.53,12.33-13.13,17-19.8,4.66-6.66,7.53-13.73,8.6-21.2,1.06-9.6-.8-17.66-5.6-24.2-4.8-6.53-11.34-11.53-19.6-15-8.27-3.46-16.8-5.2-25.6-5.2-14.14,0-26.2,3.67-36.2,11-10,7.34-16.6,19.67-19.8,37-.8,3.2-2.14,5.47-4,6.8-1.87,1.34-4,2-6.4,2h-19.2c-2.4,0-4.47-.8-6.2-2.4-1.74-1.6-2.6-3.73-2.6-6.4,.26-10.93,2.66-21.33,7.2-31.2,4.53-9.86,11-18.53,19.4-26,8.4-7.46,18.4-13.4,30-17.8,11.6-4.4,24.6-6.6,39-6.6,16.26,0,30.2,2.2,41.8,6.6s20.93,10.27,28,17.6c7.06,7.34,12.2,15.4,15.4,24.2,3.2,8.8,4.53,17.6,4,26.4-.8,10.67-3.47,20.2-8,28.6-4.54,8.4-10,16.14-16.4,23.2-6.4,7.07-12.87,14-19.4,20.8-6.54,6.8-12.14,13.87-16.8,21.2-4.67,7.34-7.27,15.27-7.8,23.8-.27,2.94-.47,5.8-.6,8.6-.14,2.8-.2,5.54-.2,8.2-.54,2.94-1.6,5.2-3.2,6.8s-3.87,2.4-6.8,2.4h-21.6Zm-3.2,65.6c-2.67,0-4.87-.86-6.6-2.6-1.74-1.73-2.6-3.93-2.6-6.6v-24.4c0-2.66,.86-4.86,2.6-6.6,1.73-1.73,3.93-2.6,6.6-2.6h26c2.93,0,5.26,.87,7,2.6,1.73,1.74,2.6,3.94,2.6,6.6v24.4c0,2.67-.87,4.87-2.6,6.6-1.74,1.74-4.07,2.6-7,2.6h-26Z"/></g></g></g></svg>